<svg width="18" height="16" viewBox="0 0 18 16" fill="none" xmlns="http://www.w3.org/2000/svg">
<path fill-rule="evenodd" clip-rule="evenodd" d="M4 0C1.79086 0 0 1.79086 0 4V12C0 14.2091 1.79086 16 4 16H14C16.2091 16 18 14.2091 18 12V4C18 1.79086 16.2091 0 14 0H4ZM9.44536 3.87268C9.25979 3.50905 8.74021 3.50905 8.55464 3.87268L7.61677 5.71045C7.54412 5.85281 7.40779 5.95185 7.24995 5.97696L5.21231 6.30103C4.80914 6.36515 4.64858 6.85929 4.93706 7.14815L6.39506 8.60802C6.508 8.72111 6.56008 8.88137 6.53518 9.03925L6.21372 11.0773C6.15012 11.4806 6.57046 11.786 6.93432 11.6008L8.77329 10.6653C8.91574 10.5929 9.08426 10.5929 9.22671 10.6653L11.0657 11.6008C11.4295 11.786 11.8499 11.4806 11.7863 11.0773L11.4648 9.03925C11.4399 8.88137 11.492 8.72111 11.6049 8.60802L13.0629 7.14815C13.3514 6.85929 13.1909 6.36515 12.7877 6.30103L10.7501 5.97696C10.5922 5.95185 10.4559 5.85281 10.3832 5.71044L9.44536 3.87268Z" fill="#C9DD03"/>
</svg>
