<svg width="16" height="16" viewBox="0 0 16 16" fill="none" xmlns="http://www.w3.org/2000/svg">
<path d="M15.0797 4.61786L6.51909 4.6146L4.75974 3.1734L2.859 3.17666V3.1734H1.06584C1.05408 3.1734 1.04323 3.17625 1.03155 3.17666H0.869602L0.863269 3.19247C0.371676 3.28105 0 3.68404 0 4.16908V5.84417H0.00345439V14.226C0.00345439 14.7008 0.415514 15.0856 0.923721 15.0856H15.0797C15.5879 15.0856 16 14.7008 16 14.226V5.47753C15.9999 5.00276 15.5879 4.61786 15.0797 4.61786Z" fill="#D2D2D2"/>
<path d="M15.0003 3.36581L14.8776 1.5759L0.588792 2.68225L0.572754 2.47917L15.0687 1.35677L15.2054 3.35204L15.0003 3.36581Z" fill="#D2D2D2"/>
<path d="M0.494554 1.32548L0.478516 1.1224L14.9744 0L15.0366 0.907179L14.8315 0.920951L14.7834 0.219134L0.494554 1.32548Z" fill="#D2D2D2"/>
</svg>
