<svg width="17" height="18" viewBox="0 0 17 18" fill="none" xmlns="http://www.w3.org/2000/svg">
<path d="M8.40199 18.0001C13.0425 18.0001 16.804 17.5375 16.804 16.9668C16.804 16.396 13.0425 15.9335 8.40199 15.9335C3.76143 15.9335 0 16.396 0 16.9668C0 17.5375 3.76143 18.0001 8.40199 18.0001Z" fill="#D2D2D2"/>
<path d="M7.19372 9.33654H6.26867C6.26867 10.3633 6.998 11.2238 7.96678 11.425V12.0176H8.83716V11.425C9.80595 11.2238 10.5353 10.3633 10.5353 9.33654C10.5353 8.3098 9.80595 7.44926 8.83607 7.24807V4.86765C9.30187 5.04807 9.60913 5.49529 9.60913 5.99499H10.5342C10.5342 4.96825 9.80376 4.10771 8.83607 3.90652V3.16626H7.96569V3.90652C6.9969 4.10771 6.26758 4.96825 6.26758 5.99608C6.26758 7.02391 6.998 7.88336 7.96569 8.08455V10.465C7.50098 10.2845 7.19372 9.83624 7.19372 9.33654ZM9.61022 9.33654C9.61022 9.83624 9.30296 10.2845 8.83607 10.4639V8.2092C9.30296 8.38962 9.61022 8.83683 9.61022 9.33654ZM7.19372 5.99499C7.19372 5.49529 7.50098 5.04807 7.96678 4.86765V7.12232C7.50098 6.9419 7.19372 6.49469 7.19372 5.99499Z" fill="#D2D2D2"/>
<path d="M2.98069 13.1101C5.98218 16.1039 10.8425 16.0973 13.8364 13.0969C16.8302 10.0965 16.8236 5.23512 13.8232 2.24128C10.8228 -0.752553 5.9614 -0.745993 2.96757 2.2544C0.763196 4.46424 0.116974 7.7883 1.33178 10.663C1.71777 11.5771 2.27761 12.4081 2.98069 13.1101ZM7.98973 1.12598V1.95043H8.86011V1.12598C12.1284 1.34138 14.7505 3.96345 14.9659 7.23065H14.1261V8.10102H14.9659C14.7505 11.3693 12.1284 13.9914 8.86011 14.2057V13.3812H7.98973V14.2057C4.72145 13.9914 2.09938 11.3682 1.88506 8.10102H2.94461V7.23065H1.88616C2.10047 3.96236 4.72145 1.34029 7.98973 1.12598Z" fill="#D2D2D2"/>
</svg>
