<svg width="20" height="20" viewBox="0 0 20 20" fill="none" xmlns="http://www.w3.org/2000/svg">
<path d="M9.2928 13.2407C8.80577 13.2407 8.32438 13.0709 7.89377 12.746C7.54743 12.4847 7.35361 12.2137 7.34553 12.2022C7.29098 12.1252 7.29183 12.0213 7.3475 11.9451L13.2695 3.84851C13.2794 3.83496 13.2909 3.82265 13.3036 3.81177L16.5319 1.0513C16.6227 0.973716 16.7582 0.985454 16.8346 1.07755C16.911 1.16964 16.8995 1.30707 16.8087 1.38466L13.5995 4.12871L7.79296 12.0674C7.87224 12.1562 7.9975 12.2826 8.16207 12.4051C8.54819 12.6927 8.96056 12.8263 9.3875 12.8021C9.85544 12.7755 10.3394 12.5558 10.8257 12.1491C11.4362 11.6385 12.0522 10.832 12.6564 9.75204C12.6694 9.72875 12.6865 9.70814 12.7068 9.69125C14.8453 7.9088 16.1575 6.58245 16.1706 6.56928C16.2069 6.53234 16.2553 6.50991 16.3066 6.5061L17.6516 6.4057C17.7698 6.39701 17.8729 6.48701 17.8815 6.60707C17.8903 6.72713 17.8014 6.83163 17.6831 6.84041L16.4168 6.93498C16.1422 7.20812 14.8964 8.42826 13.0101 10.0026C12.385 11.1132 11.741 11.9494 11.0956 12.4882C10.5364 12.955 9.96791 13.2072 9.40602 13.2376C9.36831 13.2396 9.33051 13.2407 9.2928 13.2407Z" fill="#D2D2D2"/>
<path d="M17.6674 18.9999C17.5807 18.9999 17.4991 18.9462 17.4665 18.8592L16.7614 16.9732H8.77387C8.65528 16.9732 8.55908 16.8756 8.55908 16.7552C8.55908 16.6349 8.65528 16.5373 8.77387 16.5373H16.9095C16.9987 16.5373 17.0787 16.5933 17.1103 16.6779L17.868 18.7045C17.9101 18.817 17.8543 18.9429 17.7434 18.9856C17.7184 18.9953 17.6927 18.9999 17.6674 18.9999Z" fill="#D2D2D2"/>
<path d="M3.56492 18.9999C3.53962 18.9999 3.51385 18.9953 3.48875 18.9857C3.37787 18.943 3.32201 18.8171 3.36414 18.7045L4.12201 16.678C4.1537 16.5933 4.23363 16.5373 4.32278 16.5373L12.4584 16.5377C12.577 16.5377 12.6732 16.6353 12.6732 16.7557C12.6732 16.876 12.577 16.9736 12.4584 16.9736L4.47099 16.9733L3.76578 18.8591C3.73315 18.9463 3.65153 18.9999 3.56492 18.9999Z" fill="#D2D2D2"/>
<path d="M6.76758 16.4721V15.2151C6.76758 14.9259 6.99863 14.6914 7.28367 14.6914H13.9484C14.2335 14.6914 14.4645 14.9259 14.4645 15.2151V16.7554L6.76758 16.7555V16.4721Z" fill="#D2D2D2"/>
<path d="M6.32328 10.7665C6.25068 10.7665 6.17714 10.7478 6.10971 10.7085L3.35088 9.09966C3.14522 8.97969 3.07422 8.71324 3.19243 8.50452C3.31064 8.2958 3.57319 8.22375 3.77886 8.34371L6.53769 9.95246C6.74335 10.0724 6.81435 10.3389 6.69614 10.5476C6.61668 10.688 6.47205 10.7665 6.32328 10.7665Z" fill="#D2D2D2"/>
<path d="M6.20977 13.4587H2.42957C2.19231 13.4587 2 13.2636 2 13.0228C2 12.782 2.19231 12.5868 2.42957 12.5868H6.20977C6.44703 12.5868 6.63934 12.782 6.63934 13.0228C6.63934 13.2636 6.44703 13.4587 6.20977 13.4587Z" fill="#D2D2D2"/>
</svg>
