<svg width="24" height="24" viewBox="0 0 24 24" fill="none" xmlns="http://www.w3.org/2000/svg">
<path fill-rule="evenodd" clip-rule="evenodd" d="M9.39392 2.92628C6.38869 2.92628 3.95222 5.36276 3.95222 8.36799V10.7365C3.3016 11.5034 2.90918 12.4962 2.90918 13.5808C2.90918 15.1614 3.74257 16.5472 4.99393 17.3227V18.0639C4.99393 19.9181 6.49624 21.4204 8.35043 21.4204H13.5634C13.9776 21.4204 14.3134 21.0846 14.3134 20.6704C14.3134 20.2562 13.9776 19.9204 13.5634 19.9204H8.35043C7.32466 19.9204 6.49393 19.0897 6.49393 18.0639V17.9047C6.75783 17.9541 7.03004 17.9799 7.30828 17.9799H8.35088C9.053 17.9799 9.62218 17.4107 9.62218 16.7086V10.453C9.62218 9.7509 9.053 9.18172 8.35088 9.18172H7.30828C6.64506 9.18172 6.01615 9.32846 5.45222 9.59124V8.36799C5.45222 6.19119 7.21712 4.42628 9.39392 4.42628H14.6069C16.7837 4.42628 18.5486 6.19119 18.5486 8.36799V9.59146C17.9846 9.32854 17.3555 9.18172 16.6921 9.18172H15.6495C14.9473 9.18172 14.3782 9.7509 14.3782 10.453V16.7086C14.3782 17.4107 14.9473 17.9799 15.6495 17.9799H16.6921C19.1218 17.9799 21.0912 16.0105 21.0912 13.5808C21.0912 12.4965 20.6989 11.5039 20.0486 10.737V8.36799C20.0486 5.36276 17.6121 2.92628 14.6069 2.92628H9.39392ZM4.40918 13.5808C4.40918 11.9795 5.707 10.6817 7.30828 10.6817H8.12218V16.4799H7.30828C5.707 16.4799 4.40918 15.1821 4.40918 13.5808ZM15.8782 10.6817V16.4799H16.6921C18.2933 16.4799 19.5912 15.1821 19.5912 13.5808C19.5912 11.9795 18.2933 10.6817 16.6921 10.6817H15.8782Z" fill="white"/>
</svg>
