<svg width="20" height="20" viewBox="0 0 20 20" fill="none" xmlns="http://www.w3.org/2000/svg">
<path d="M10.55 2.09845L10.525 2.15678L8.1083 7.76512H5.7333C5.16663 7.76512 4.62497 7.88178 4.1333 8.09012L5.59163 4.60679L5.62497 4.52345L5.6833 4.39012C5.69997 4.34012 5.71663 4.29012 5.74163 4.24845C6.8333 1.72345 8.06663 1.14845 10.55 2.09845Z" stroke="#D2D2D2" stroke-width="0.5" stroke-linecap="round" stroke-linejoin="round"/>
<path d="M15.0417 7.93186C14.6667 7.81519 14.2667 7.76519 13.8667 7.76519H8.1084L10.5251 2.15686L10.5501 2.09853C10.6751 2.14019 10.7917 2.19853 10.9167 2.24853L12.7584 3.02353C13.7834 3.44853 14.5001 3.89019 14.9334 4.42353C15.0167 4.52353 15.0834 4.61519 15.1417 4.72353C15.2167 4.84019 15.2751 4.95686 15.3084 5.08186C15.3417 5.15686 15.3667 5.23186 15.3834 5.29853C15.6084 5.99853 15.4751 6.85686 15.0417 7.93186Z" stroke="#D2D2D2" stroke-width="0.5" stroke-linecap="round" stroke-linejoin="round"/>
<path d="M17.9346 11.832V13.457C17.9346 13.6236 17.9263 13.7903 17.9179 13.957C17.7596 16.8653 16.1346 18.332 13.0513 18.332H6.55127C6.35127 18.332 6.15127 18.3153 5.9596 18.2903C3.3096 18.1153 1.89294 16.6986 1.71794 14.0486C1.69294 13.857 1.67627 13.657 1.67627 13.457V11.832C1.67627 10.157 2.69294 8.7153 4.14294 8.0903C4.64294 7.88197 5.17627 7.7653 5.74294 7.7653H13.8763C14.2846 7.7653 14.6846 7.82364 15.0513 7.93197C16.7096 8.44031 17.9346 9.9903 17.9346 11.832Z" stroke="#D2D2D2" stroke-linecap="round" stroke-linejoin="round"/>
<path d="M10.4336 14.7167H10.6419C10.8919 14.7167 11.1003 14.4917 11.1003 14.2167C11.1003 13.8667 11.0003 13.8167 10.7836 13.7334L10.4336 13.6084V14.7167Z" fill="#D2D2D2"/>
<path d="M15.2417 7.93333C14.8667 7.825 14.475 7.76666 14.0667 7.76666H5.93337C5.3667 7.76666 4.83337 7.875 4.33337 8.09166C2.88337 8.71666 1.8667 10.1583 1.8667 11.8333V13.4583C1.8667 13.6583 1.88337 13.85 1.90837 14.05C2.0917 16.7 3.50837 18.1167 6.15837 18.2917C6.35003 18.3167 6.5417 18.3333 6.75003 18.3333H13.25C16.3334 18.3333 17.9584 16.8667 18.1167 13.95C18.125 13.7917 18.1334 13.625 18.1334 13.4583V11.8333C18.1334 9.99166 16.9084 8.44166 15.2417 7.93333ZM11.0667 12.9167C11.45 13.05 11.9667 13.3333 11.9667 14.2167C11.9667 14.975 11.375 15.5833 10.6417 15.5833H10.4334V15.7667C10.4334 16.0083 10.2417 16.2 10 16.2C9.75837 16.2 9.5667 16.0083 9.5667 15.7667V15.5833H9.4917C8.6917 15.5833 8.03337 14.9083 8.03337 14.075C8.03337 13.8333 8.22503 13.6417 8.4667 13.6417C8.70837 13.6417 8.90003 13.8333 8.90003 14.075C8.90003 14.425 9.1667 14.7167 9.4917 14.7167H9.5667V13.3083L8.93337 13.0833C8.55003 12.95 8.03337 12.6667 8.03337 11.7833C8.03337 11.025 8.62503 10.4167 9.35837 10.4167H9.5667V10.2333C9.5667 9.99166 9.75837 9.8 10 9.8C10.2417 9.8 10.4334 9.99166 10.4334 10.2333V10.4167H10.5084C11.3084 10.4167 11.9667 11.0917 11.9667 11.925C11.9667 12.1667 11.775 12.3583 11.5334 12.3583C11.2917 12.3583 11.1 12.1667 11.1 11.925C11.1 11.575 10.8334 11.2833 10.5084 11.2833H10.4334V12.6917L11.0667 12.9167Z" fill="#D2D2D2"/>
<path d="M8.8999 11.7834C8.8999 12.1334 8.9999 12.1834 9.21657 12.2667L9.56657 12.3917V11.2834H9.35824C9.0999 11.2834 8.8999 11.5084 8.8999 11.7834Z" fill="#D2D2D2"/>
<path d="M5.5915 4.60666L4.13317 8.08999C2.68317 8.71499 1.6665 10.1567 1.6665 11.8317V9.38999C1.6665 7.02333 3.34984 5.04833 5.5915 4.60666Z" stroke="#D2D2D2" stroke-width="0.5" stroke-linecap="round" stroke-linejoin="round"/>
<path d="M17.9322 9.38971V11.8314C17.9322 9.99804 16.7155 8.43971 15.0488 7.93971C15.4822 6.85638 15.6072 6.00638 15.3988 5.29804C15.3822 5.22304 15.3572 5.14804 15.3238 5.08138C16.8738 5.88138 17.9322 7.52304 17.9322 9.38971Z" stroke="#D2D2D2" stroke-width="0.5" stroke-linecap="round" stroke-linejoin="round"/>
</svg>
